<?xml version="1.0" standalone="no"?>
<!DOCTYPE svg PUBLIC "-//W3C//DTD SVG 20010904//EN"
 "http://www.w3.org/TR/2001/REC-SVG-20010904/DTD/svg10.dtd">
<svg version="1.0" xmlns="http://www.w3.org/2000/svg"
 width="191.000000pt" height="144.000000pt" viewBox="0 0 191.000000 144.000000"
 preserveAspectRatio="xMidYMid meet">

<g transform="translate(0.000000,144.000000) scale(0.100000,-0.100000)"
fill="#000000" stroke="none">
<path d="M870 1080 c-14 -33 -104 -120 -125 -120 -6 0 -20 -9 -30 -20 -14 -16
-26 -19 -47 -15 -55 12 -27 -2 39 -20 49 -13 103 -42 205 -108 76 -49 138 -93
138 -97 0 -4 24 16 53 44 28 28 103 100 165 159 74 71 106 107 94 107 -11 0
-121 23 -246 50 -125 28 -228 50 -230 50 -2 0 -9 -14 -16 -30z"/>
<path d="M362 965 c4 -4 56 -37 115 -74 l108 -67 3 -82 3 -81 51 -16 c28 -8
58 -15 65 -15 18 0 18 140 1 161 -23 29 -278 170 -316 176 -20 3 -34 2 -30 -2z"/>
<path d="M1395 887 c-71 -61 -87 -80 -64 -75 18 4 33 15 97 74 79 73 51 74
-33 1z m75 50 c0 -2 -10 -12 -22 -23 l-23 -19 19 23 c18 21 26 27 26 19z"/>
<path d="M1529 528 l-2 -43 -6 40 c-5 30 -8 36 -14 22 -4 -10 -7 -34 -7 -52 0
-27 4 -33 19 -32 11 0 17 5 14 11 -4 5 1 7 11 3 14 -6 15 -4 5 14 -6 12 -8 34
-5 50 3 16 1 29 -4 29 -6 0 -11 -19 -11 -42z"/>
<path d="M1433 513 c-13 -9 -23 -21 -23 -28 0 -16 29 -73 31 -60 3 20 5 30 13
47 4 9 6 25 4 36 -3 18 -5 19 -25 5z"/>
<path d="M1459 423 c-13 -15 -12 -15 9 -4 23 12 28 21 13 21 -5 0 -15 -7 -22
-17z"/>
<path d="M722 294 l3 -137 133 -48 c74 -27 138 -49 143 -49 6 0 8 57 7 137
l-3 138 -135 47 c-74 26 -139 47 -143 47 -4 1 -6 -60 -5 -135z m82 97 l50 -17
4 -57 c4 -59 2 -61 -36 -50 -18 4 -20 8 -10 14 10 7 10 9 1 9 -7 0 -13 7 -13
15 0 8 7 15 16 15 11 0 14 8 12 27 -2 21 -10 29 -36 37 -43 12 -50 2 -27 -40
13 -25 15 -38 7 -46 -23 -23 -38 -1 -41 56 -2 63 -2 64 73 37z m176 -61 c18
-10 21 -19 18 -66 -2 -34 -7 -54 -15 -54 -13 0 -24 48 -20 90 2 20 -2 25 -18
23 -11 -1 -24 5 -28 13 -12 22 -28 6 -21 -21 3 -13 3 -33 -1 -44 -12 -40 -25
-21 -25 38 l0 59 44 -13 c25 -8 54 -19 66 -25z m-40 -56 c0 -14 -4 -22 -10
-19 -5 3 -10 17 -10 31 0 14 4 22 10 19 6 -3 10 -17 10 -31z m-154 -9 c20 -8
33 -19 29 -25 -4 -7 -11 -8 -18 -1 -8 6 -18 5 -30 -3 -22 -17 -22 -22 3 -29
11 -3 20 -12 20 -20 0 -16 -27 -30 -41 -21 -9 5 -13 114 -4 114 3 0 22 -7 41
-15z m70 -81 c0 -30 -3 -54 -6 -53 -41 6 -67 59 -28 59 15 0 17 4 10 18 -12
22 -5 42 12 36 9 -4 13 -23 12 -60z m89 27 c39 -14 49 -22 47 -37 -5 -27 -8
-28 -31 -5 -20 20 -37 25 -73 22 -12 -2 -18 5 -18 18 0 25 9 25 75 2z m-51
-69 c6 -19 11 -21 66 -24 22 -1 30 -6 30 -20 0 -22 3 -22 -64 3 -40 16 -56 27
-56 40 0 24 17 25 24 1z"/>
<path d="M1513 423 c-7 -2 -13 -11 -13 -19 0 -8 -4 -14 -10 -14 -15 0 -12 -17
5 -24 16 -6 65 34 65 54 0 10 -4 9 -17 -1 -11 -10 -14 -10 -9 -1 7 12 0 14
-21 5z"/>
<path d="M1420 359 c-7 -11 -10 -22 -8 -25 8 -7 48 27 43 37 -10 15 -24 10
-35 -12z"/>
<path d="M1416 283 c-4 -11 -1 -11 14 -3 24 13 25 17 5 17 -8 0 -16 -6 -19
-14z"/>
<path d="M330 282 c0 -6 668 -259 710 -269 8 -2 -14 11 -50 28 -101 49 -660
253 -660 241z"/>
</g>
</svg>
